# xmcd
#
# Track frame offsets: 
#        150
#        12620
#        33875
#        53602
#        67212
#        78060
#        90065
#        106392
#        122850
#        137810
#        153187
#        166567
#        187170
#        202487
#        216975
#        232567
#
# Disc length: 3257 seconds
#
# Revision: 3
# Processed by: cddbd v1.5.2PL0 Copyright (c) Steve Scherf et al.
# Submitted via: ExactAudioCopyFreeDBPlugin 1.0
#
DISCID=cf0cb710
DTITLE=Kris Kristofferson - K R I S T O F F E R S O N     1 9 7 0
DYEAR=1970
DGENRE=Country Folk
TTITLE0=Blame It On The Stones  1970
TTITLE1=To Beat The Devil  1970
TTITLE2=Me And Bobby Mcgee  1970
TTITLE3=Best Of All Possible Worlds  1970
TTITLE4=Help Me Make It Through The Night  1970
TTITLE5=The Law Is For Protection Of The People  1970
TTITLE6=Casey's Last Ride  1970
TTITLE7=Just The Other Side  1970
TTITLE8=Darby's Castle  1970
TTITLE9=For The Good Times  1970
TTITLE10=Duvalier's Dream  1970
TTITLE11=Sunday Mornin' Comin' Down  1970
TTITLE12=The Junkie And The Juicehead Minus Me 1974   (released  2001)
TTITLE13=Shadows Of Her Mind  1968   (released  2001)
TTITLE14=The Lady's Not For Sale  1972   (released  2001)
TTITLE15=Come Sundown  1970   (released  2001)
EXTD=
EXTT0=
EXTT1=
EXTT2=
EXTT3=
EXTT4=
EXTT5=
EXTT6=
EXTT7=
EXTT8=
EXTT9=
EXTT10=
EXTT11=
EXTT12=
EXTT13=
EXTT14=
EXTT15=
PLAYORDER=
